<svg xmlns="http://www.w3.org/2000/svg" viewBox="0 0 120 120">
  <rect width="120" height="120" fill="#6f45b8"/>
  <path d="M34 54c14-16 38-16 52 0" fill="none" stroke="#fff" stroke-width="8" stroke-linecap="round"/>
  <path d="M44 66c8-9 24-9 32 0" fill="none" stroke="#fff" stroke-width="8" stroke-linecap="round"/>
  <path d="M56 75h8v14h-8z" fill="#fff"/>
  <path d="M30 72h15v-22h10v22h11" fill="none" stroke="#fff" stroke-width="8" stroke-linecap="round" stroke-linejoin="round"/>
  <path d="M79 36c0-9 7-16 16-16s16 7 16 16c0 6-3 11-8 14v12H87V50c-5-3-8-8-8-14z" fill="#fff"/>
  <path d="M89 72h12" stroke="#fff" stroke-width="7" stroke-linecap="round"/>
</svg>
